# xmcd CD database file
#
# Track frame offsets:
#	150
#	21560
#	43810
#	60720
#	85230
#	109577
#	131297
#	153172
#	170537
#	194527
#	216137
#	235075
#	255600
#	272455
#
# Disc length: 3855 seconds
#
# Revision: 0
# Processed by: cddbd v1.5.1PL0 Copyright (c) Steve Scherf et al.
# Submitted via: CDex 1.51
#
DISCID=bd0f0d0e
DTITLE=石川さゆり - ベスト
DYEAR=1900
DGENRE=Japanese Pop
TTITLE0=大阪のおんな
TTITLE1=北の女房
TTITLE2=夏、うれしいね
TTITLE3=心の酒
TTITLE4=飢餓海峡
TTITLE5=純 ・情歌
TTITLE6=越前竹舞い
TTITLE7=恋は天下のまわりもの
TTITLE8=風の盆恋歌
TTITLE9=天城越え
TTITLE10=波止場しぐれ
TTITLE11=紫陽花ばなし
TTITLE12=能登半島
TTITLE13=津軽海峡 ・冬景色
EXTD=
EXTT0=
EXTT1=
EXTT2=
EXTT3=
EXTT4=
EXTT5=
EXTT6=
EXTT7=
EXTT8=
EXTT9=
EXTT10=
EXTT11=
EXTT12=
EXTT13=
PLAYORDER=
